<svg xmlns="http://www.w3.org/2000/svg" viewBox="0 0 512 512" width="512" height="512">
  <g transform="translate(256, 256) scale(1.5)" style="mix-blend-mode: multiply;">
    <path d="M -80,-80 C 0,-140 80,-80 100,0 C 140,80 60,110 0,100 C -100,90 -140,40 -80,-80 Z" fill="#34D399" opacity="0.7" />
    <path d="M 60,-60 C 120,-20 80,80 20,80 C -80,100 -120,40 -80,0 C -60,-80 0,-120 60,-60 Z" fill="#047857" opacity="0.85" />
    <circle cx="100" cy="-60" r="16" fill="#065F46" />
    <circle cx="-100" cy="-40" r="12" fill="#065F46" />
    <circle cx="-60" cy="100" r="18" fill="#065F46" />
    <circle cx="80" cy="80" r="14" fill="#065F46" />
    <circle cx="130" cy="10" r="10" fill="#065F46" />
    <circle cx="-130" cy="30" r="8" fill="#065F46" />
  </g>
</svg>
